nColumns=19
nRows=98
DataType=double
version=3
OpenSimVersion=4.1
endheader
time	ground_force_calcn_r_vx	ground_force_calcn_r_vy	ground_force_calcn_r_vz	ground_force_calcn_r_px	ground_force_calcn_r_py	ground_force_calcn_r_pz	ground_force_calcn_r_mx	ground_force_calcn_r_my	ground_force_calcn_r_mz	ground_force_calcn_l_vx	ground_force_calcn_l_vy	ground_force_calcn_l_vz	ground_force_calcn_l_px	ground_force_calcn_l_py	ground_force_calcn_l_pz	ground_force_calcn_l_mx	ground_force_calcn_l_my	ground_force_calcn_l_mz
0	-64.0281	458.812	34.9889	0.122065	0	-0.255834	-0.142824	1.02345	0.0780476	0	0	0	0	0	0	0	0	0
0.01	-68.5801	479.643	27.98	0.126583	0	-0.254305	-0.0820307	0.573715	0.0334677	0	0	0	0	0	0	0	0	0
0.02	-73.4573	503.679	20.4411	0.132245	0	-0.252567	-0.0208031	0.142642	0.00578892	0	0	0	0	0	0	0	0	0
0.03	-78.5246	530.829	12.6455	0.138165	0	-0.250924	0.0358487	-0.242338	-0.00577301	0	0	0	0	0	0	0	0	0
0.04	-83.6364	561.026	4.871	0.144205	0	-0.249438	0.0839103	-0.562863	-0.00488695	0	0	0	0	0	0	0	0	0
0.05	-88.6594	594.156	-2.64687	0.150244	0	-0.24815	0.121337	-0.813143	0.00362242	0	0	0	0	0	0	0	0	0
0.06	-93.4836	629.932	-9.72046	0.156182	0	-0.247078	0.147966	-0.997055	0.0153855	0	0	0	0	0	0	0	0	0
0.07	-98.0006	667.806	-16.1957	0.161942	0	-0.246219	0.164784	-1.12289	0.0272324	0	0	0	0	0	0	0	0	0
0.08	-102.087	706.949	-21.9553	0.167475	0	-0.245557	0.173406	-1.20084	0.0372938	0	0	0	0	0	0	0	0	0
0.09	-105.606	746.311	-26.9427	0.172758	0	-0.245064	0.175889	-1.243	0.0448736	0	0	0	0	0	0	0	0	0
0.1	-108.435	784.714	-31.1677	0.177794	0	-0.244704	0.174331	-1.26158	0.0501081	0	0	0	0	0	0	0	0	0
0.11	-110.478	820.96	-34.6874	0.182601	0	-0.244441	0.170443	-1.26656	0.0535151	0	0	0	0	0	0	0	0	0
0.12	-111.678	853.95	-37.5862	0.187217	0	-0.244242	0.165503	-1.26552	0.0557014	0	0	0	0	0	0	0	0	0
0.13	-112.027	882.79	-39.9551	0.191687	0	-0.244082	0.16039	-1.2639	0.057204	0	0	0	0	0	0	0	0	0
0.14	-111.55	906.842	-41.8701	0.196061	0	-0.243936	0.155626	-1.26515	0.0584139	0	0	0	0	0	0	0	0	0
0.15	-110.302	925.727	-43.3847	0.200386	0	-0.243791	0.151455	-1.27111	0.0595714	0	0	0	0	0	0	0	0	0
0.16	-108.359	939.294	-44.5319	0.204708	0	-0.243637	0.147905	-1.2821	0.0607843	0	0	0	0	0	0	0	0	0
0.17	-105.809	947.581	-45.3278	0.209069	0	-0.243465	0.144837	-1.2971	0.0620473	0	0	0	0	0	0	0	0	0
0.18	-102.749	950.781	-45.7776	0.213502	0	-0.243273	0.142031	-1.31427	0.0632787	0	0	0	0	0	0	0	0	0
0.19	-99.28	949.23	-45.8849	0.218037	0	-0.24306	0.139274	-1.33162	0.0643692	0	0	0	0	0	0	0	0	0
0.2	-95.5026	943.388	-45.6598	0.222696	0	-0.242825	0.136405	-1.34743	0.0652153	0	0	0	0	0	0	0	0	0
0.21	-91.5175	933.82	-45.1249	0.227492	0	-0.242569	0.133326	-1.36042	0.0657396	0	0	0	0	0	0	0	0	0
0.22	-87.4208	921.184	-44.314	0.232434	0	-0.242292	0.130025	-1.37012	0.0659102	0	0	0	0	0	0	0	0	0
0.23	-83.2957	906.201	-43.2662	0.237518	0	-0.241995	0.126574	-1.37703	0.0657459	0	0	0	0	0	0	0	0	0
0.24	-79.2083	889.628	-42.0197	0.242724	0	-0.241677	0.123106	-1.38266	0.0653073	0	0	0	0	0	0	0	0	0
0.25	-75.2055	872.223	-40.6109	0.24802	0	-0.241341	0.11979	-1.38931	0.0646867	0	0	0	0	0	0	0	0	0
0.26	-71.3132	854.706	-39.0759	0.253358	0	-0.240988	0.116766	-1.39947	0.0639818	0	0	0	0	0	0	0	0	0
0.27	-67.5392	837.719	-37.4526	0.258678	0	-0.24062	0.114091	-1.41512	0.0632671	0	0	0	0	0	0	0	0	0
0.28	-63.8778	821.798	-35.7805	0.263913	0	-0.240237	0.111726	-1.43737	0.0625819	0	0	0	0	0	0	0	0	0
0.29	-60.3125	807.362	-34.0979	0.268992	0	-0.239839	0.109545	-1.4664	0.0619315	0	0	0	0	0	0	0	0	0
0.3	-56.8172	794.717	-32.4402	0.273846	0	-0.239424	0.107337	-1.50134	0.0612846	0	0	0	0	0	0	0	0	0
0.31	-53.3597	784.062	-30.8394	0.278412	0	-0.238988	0.104819	-1.5402	0.0605806	0	0	0	0	0	0	0	0	0
0.32	-49.903	775.508	-29.3258	0.282638	0	-0.238528	0.101669	-1.57997	0.0597465	0	0	0	0	0	0	0	0	0
0.33	-46.4081	769.088	-27.9308	0.286482	0	-0.238034	0.0975524	-1.61667	0.058712	0	0	0	0	0	0	0	0	0
0.34	-42.8347	764.777	-26.6889	0.289915	0	-0.237497	0.0921571	-1.64539	0.05742	0	0	0	0	0	0	0	0	0
0.35	-39.1419	762.502	-25.6375	0.292922	0	-0.236907	0.0852517	-1.66074	0.0558388	0	0	0	0	0	0	0	0	0
0.36	-35.2885	762.162	-24.8153	0.295502	0	-0.236247	0.0767326	-1.65728	0.0539594	0	0	0	0	0	0	0	0	0
0.37	-31.2332	763.645	-24.262	0.297663	0	-0.235506	0.0666504	-1.62959	0.0517741	0	0	0	0	0	0	0	0	0
0.38	-26.9363	766.838	-24.0174	0.299425	0	-0.23467	0.0552392	-1.57258	0.0492534	0	0	0	0	0	0	0	0	0
0.39	-22.3605	771.648	-24.1208	0.300816	0	-0.233725	0.0429448	-1.482	0.0463256	0	0	0	0	0	0	0	0	0
0.4	-17.4719	778.001	-24.6098	0.30187	0	-0.232663	0.0304248	-1.35477	0.0428544	0	0	0	0	0	0	0	0	0
0.41	-12.241	785.853	-25.5192	0.302627	0	-0.231482	0.0185276	-1.18944	0.038625	0	0	0	0	0	0	0	0	0
0.42	-6.64377	795.178	-26.8789	0.30313	0	-0.230187	0.00824237	-0.986511	0.0333464	0	0	0	0	0	0	0	0	0
0.43	-0.664659	805.965	-28.7128	0.303426	0	-0.228794	0.00061743	-0.748695	0.0266725	0	0	0	0	0	0	0	0	0
0.44	5.70162	818.202	-31.0341	0.303562	0	-0.22733	-0.00335286	-0.481146	0.0182497	0	0	0	0	0	0	0	0	0
0.45	12.45	831.855	-33.839	0.303588	0	-0.225828	-0.00286826	-0.191645	0.00779592	0	0	0	0	0	0	0	0	0
0.46	19.5665	846.841	-37.0992	0.303552	0	-0.224326	0.0025284	0.10943	-0.00479399	0	0	0	0	0	0	0	0	0
0.47	27.0308	863.013	-40.7604	0.303498	0	-0.222867	0.0128351	0.409787	-0.0193544	0	0	0	0	0	0	0	0	0
0.48	34.8185	880.153	-44.7461	0.303463	0	-0.221484	0.0275477	0.696358	-0.0354022	0	0	0	0	0	0	0	0	0
0.49	42.9025	897.966	-48.9616	0.303479	0	-0.220208	0.0456995	0.956508	-0.0521537	0	0	0	0	0	0	0	0	0
0.5	51.2524	916.087	-53.2994	0.303564	0	-0.219062	0.0659763	1.17926	-0.0686113	0	0	0	0	0	0	0	0	0
0.51	59.8324	934.088	-57.647	0.303736	0	-0.218058	0.0868809	1.35636	-0.0837074	0	0	0	0	0	0	0	0	0
0.52	68.5985	951.488	-61.8949	0.304001	0	-0.217202	0.106909	1.48287	-0.0964618	0	0	0	0	0	0	0	0	0
0.53	77.4948	967.763	-65.9401	0.304364	0	-0.216497	0.124697	1.55723	-0.106104	0	0	0	0	0	0	0	0	0
0.54	86.453	982.349	-69.685	0.304828	0	-0.21594	0.139115	1.58074	-0.112133	0	0	0	0	0	0	0	0	0
0.55	95.3915	994.658	-73.0374	0.305393	0	-0.215524	0.149328	1.55706	-0.114335	0	0	0	0	0	0	0	0	0
0.56	104.214	1004.09	-75.9068	0.306055	0	-0.215245	0.154788	1.49137	-0.112744	0	0	0	0	0	0	0	0	0
0.57	112.806	1010.04	-78.2026	0.306813	0	-0.215094	0.155172	1.38937	-0.107573	0	0	0	0	0	0	0	0	0
0.58	121.04	1011.92	-79.8345	0.307663	0	-0.215061	0.150326	1.25676	-0.0991509	0.867134	29.8927	-8.67478	0.715486	0	-0.413211	0.000991282	0.0341724	-0.00991676
0.59	128.768	1009.19	-80.7169	0.308601	0	-0.215136	0.140204	1.09882	-0.0878855	-0.99688	49.6485	-9.38358	0.748792	0	-0.426345	-0.00359198	0.178895	-0.0338111
0.6	135.827	1001.33	-80.7731	0.309623	0	-0.21531	0.12481	0.92011	-0.0742216	-3.69741	73.9333	-9.82259	0.766853	0	-0.433281	-0.0125576	0.251101	-0.0333606
0.61	142.034	987.88	-79.9434	0.310726	0	-0.215573	0.104175	0.724561	-0.0586346	-7.38907	102.849	-9.84447	0.778781	0	-0.437546	-0.0210731	0.293319	-0.0280758
0.62	147.195	968.469	-78.1931	0.311911	0	-0.215915	0.0784186	0.515954	-0.0416576	-12.2122	136.224	-9.27677	0.787687	0	-0.440482	-0.029073	0.324303	-0.0220847
0.63	151.111	942.818	-75.5201	0.313179	0	-0.216325	0.0478199	0.29836	-0.0238988	-18.2278	173.602	-7.92836	0.794954	0	-0.442707	-0.0373098	0.355338	-0.0162283
0.64	153.589	910.79	-71.9598	0.314533	0	-0.216794	0.0128774	0.0763638	-0.00603336	-25.3415	214.302	-5.61373	0.801297	0	-0.444546	-0.0467123	0.395026	-0.0103479
0.65	154.457	872.418	-67.5889	0.315977	0	-0.217312	-0.0256363	-0.144801	0.0112182	-33.2944	257.555	-2.19405	0.807117	0	-0.446174	-0.0579452	0.448245	-0.0038185
0.66	153.58	827.941	-62.5254	0.317518	0	-0.217865	-0.0666207	-0.359149	0.0271226	-41.7455	302.565	2.38869	0.81265	0	-0.447676	-0.0708764	0.513701	0.00405556
0.67	150.87	777.82	-56.9247	0.319164	0	-0.218447	-0.108615	-0.559975	0.0409817	-50.3718	348.534	8.08749	0.818044	0	-0.449084	-0.0841554	0.58229	0.0135116
0.68	146.304	722.745	-50.9689	0.320926	0	-0.219041	-0.149857	-0.740295	0.0522066	-58.9232	394.727	14.7392	0.823396	0	-0.4504	-0.0951039	0.637102	0.0237896
0.69	139.931	663.621	-44.8532	0.322819	0	-0.21964	-0.188426	-0.893608	0.0603978	-67.2196	440.574	22.0675	0.828767	0	-0.451609	-0.100094	0.656039	0.0328598
0.7	131.873	601.54	-38.7712	0.324858	0	-0.220232	-0.222421	-1.01457	0.0653925	-75.1239	485.683	29.7092	0.834189	0	-0.452684	-0.095536	0.617649	0.0377816
0.71	122.332	537.741	-32.9011	0.327066	0	-0.220811	-0.250123	-1.09948	0.0672703	-82.5227	529.778	37.2668	0.839666	0	-0.453598	-0.0791314	0.508007	0.0357353
0.72	111.578	473.547	-27.3944	0.32947	0	-0.221371	-0.270151	-1.14655	0.066327	-89.3266	572.642	44.3724	0.845195	0	-0.454335	-0.0506823	0.324906	0.0251761
0.73	99.9401	410.293	-22.3664	0.332106	0	-0.221908	-0.281618	-1.15615	0.0630255	-95.4823	614.096	50.7412	0.850764	0	-0.454893	-0.0120047	0.0772083	0.00637954
0.74	87.7923	349.243	-17.8922	0.335016	0	-0.222423	-0.284245	-1.13074	0.0579296	-100.971	653.995	56.1885	0.856362	0	-0.455286	0.0339056	-0.219607	-0.0188677
0.75	75.5234	291.514	-14.0082	0.338267	0	-0.222914	-0.278345	-1.07439	0.0516281	-105.793	692.19	60.6145	0.861979	0	-0.455532	0.0837026	-0.547656	-0.0479578
0.76	63.4999	238.025	-10.7167	0.341959	0	-0.223382	-0.264763	-0.992446	0.0446831	-109.945	728.475	63.9883	0.867595	0	-0.455658	0.134083	-0.888404	-0.0780362
0.77	52.0361	189.48	-7.99155	0.346267	0	-0.22383	-0.244763	-0.891259	0.03759	-113.415	762.56	66.3395	0.873195	0	-0.455697	0.181968	-1.22349	-0.106439
0.78	41.3848	146.352	-5.78538	0.351493	0	-0.224261	-0.219883	-0.777587	0.0307385	-116.169	794.078	67.7497	0.87876	0	-0.455683	0.224815	-1.53674	-0.131112
0.79	31.7375	108.886	-4.03571	0.358197	0	-0.224683	-0.191778	-0.657959	0.0243863	-118.173	822.625	68.3361	0.884276	0	-0.45565	0.260938	-1.81644	-0.150893
0.8	23.2274	77.1032	-2.67279	0.367511	0	-0.225105	-0.162153	-0.538264	0.018659	-119.404	847.799	68.2441	0.889737	0	-0.455633	0.289495	-2.05548	-0.165457
0.81	15.9319	50.8228	-1.62656	0.382046	0	-0.22555	-0.132795	-0.423618	0.0135577	-119.862	869.241	67.6391	0.89515	0	-0.455661	0.310345	-2.25062	-0.17513
0.82	9.87623	29.6917	-0.831281	0.409441	0	-0.226098	-0.106022	-0.318742	0.00892386	-119.566	886.68	66.6837	0.900522	0	-0.455762	0.323881	-2.40184	-0.180633
0.83	0	0	0	0	0	0	0	0	0	-118.559	899.976	65.5125	0.905868	0	-0.455953	0.33079	-2.511	-0.182785
0.84	0	0	0	0	0	0	0	0	0	-116.901	909.15	64.2123	0.911198	0	-0.456245	0.331793	-2.58038	-0.182249
0.85	0	0	0	0	0	0	0	0	0	-114.658	914.391	62.819	0.916519	0	-0.456635	0.327474	-2.61158	-0.179416
0.86	0	0	0	0	0	0	0	0	0	-111.901	916.03	61.3329	0.921828	0	-0.457119	0.31826	-2.6053	-0.174438
0.87	0	0	0	0	0	0	0	0	0	-108.7	914.499	59.7403	0.927117	0	-0.457684	0.304531	-2.56203	-0.167366
0.88	0	0	0	0	0	0	0	0	0	-105.129	910.295	58.034	0.932373	0	-0.458319	0.286721	-2.48268	-0.158278
0.89	0	0	0	0	0	0	0	0	0	-101.256	903.952	56.2242	0.937574	0	-0.459008	0.265386	-2.3692	-0.14736
0.9	0	0	0	0	0	0	0	0	0	-97.1523	896.023	54.3384	0.942693	0	-0.459737	0.241242	-2.22495	-0.134929
0.91	0	0	0	0	0	0	0	0	0	-92.8786	887.07	52.4152	0.9477	0	-0.460489	0.215124	-2.05462	-0.121403
0.92	0	0	0	0	0	0	0	0	0	-88.4902	877.64	50.4974	0.952559	0	-0.461249	0.187898	-1.86356	-0.107225
0.93	0	0	0	0	0	0	0	0	0	-84.035	868.249	48.628	0.957233	0	-0.461999	0.160403	-1.65728	-0.0928194
0.94	0	0	0	0	0	0	0	0	0	-79.5511	859.352	46.8491	0.961683	0	-0.462724	0.133416	-1.44123	-0.0785712
0.95	0	0	0	0	0	0	0	0	0	-75.067	851.317	45.1996	0.965876	0	-0.463409	0.107627	-1.22057	-0.0648048
0.96	0	0	0	0	0	0	0	0	0	-70.6018	844.421	43.7121	0.969787	0	-0.464043	0.0836276	-1.00021	-0.0517769
0.97	0	0	0	0	0	0	0	0	0	-66.1656	838.847	42.4107	0.973397	0	-0.464614	0.0619002	-0.784771	-0.0396767
